<?xml version="1.0" encoding="UTF-8" standalone="no"?>
<!-- Created with Inkscape (http://www.inkscape.org/) -->

<svg
   width="400"
   height="200"
   viewBox="0 0 105.83333 52.916666"
   version="1.1"
   id="svg1"
   xmlns="http://www.w3.org/2000/svg"
   xmlns:svg="http://www.w3.org/2000/svg">
  <defs
     id="defs1" />
  <g
     id="layer1">
    <path
       style="font-weight:600;font-size:25.4px;font-family:'Rethink Sans';-inkscape-font-specification:'Rethink Sans Semi-Bold';fill-opacity:1;stroke-width:5.29167;stroke-linecap:square;fill:#ffffff"
       d="m 30.475757,35.500733 c -1.27,0 -2.379133,-0.2794 -3.3274,-0.8382 -0.948267,-0.57573 -1.693333,-1.35467 -2.2352,-2.3368 -0.524933,-0.99907 -0.7874,-2.14207 -0.7874,-3.429 0,-1.33773 0.262467,-2.49767 0.7874,-3.4798 0.541867,-0.98213 1.286933,-1.74413 2.2352,-2.286 0.9652,-0.5588 2.0828,-0.8382 3.3528,-0.8382 1.236133,0 2.3114,0.27093 3.2258,0.8128 0.9144,0.52493 1.634067,1.25307 2.159,2.1844 0.524933,0.93133 0.7874,1.98967 0.7874,3.175 0,0.23707 -0.0085,0.44873 -0.0254,0.635 0,0.18627 -0.01693,0.38947 -0.0508,0.6096 h -9.5758 c 0.0508,0.6604 0.220133,1.25307 0.508,1.778 0.287867,0.508 0.677333,0.90593 1.1684,1.1938 0.508,0.28787 1.083733,0.4318 1.7272,0.4318 0.694267,0 1.278467,-0.1524 1.7526,-0.4572 0.491067,-0.3048 0.872067,-0.74507 1.143,-1.3208 h 3.0226 c -0.237067,0.762 -0.618067,1.45627 -1.143,2.0828 -0.508,0.62653 -1.159933,1.13453 -1.9558,1.524 -0.778933,0.37253 -1.7018,0.5588 -2.7686,0.5588 z m -3.429,-7.7978 h 6.6802 c -0.01693,-0.93133 -0.347133,-1.66793 -0.9906,-2.2098 -0.643467,-0.54187 -1.413933,-0.8128 -2.3114,-0.8128 -0.8128,0 -1.5494,0.24553 -2.2098,0.7366 -0.643467,0.49107 -1.032933,1.25307 -1.1684,2.286 z m 11.709413,7.493 v -12.5984 h 2.794 l 0.0508,1.7272 c 0.423333,-0.6604 1.007533,-1.15993 1.7526,-1.4986 0.745067,-0.3556 1.524,-0.5334 2.3368,-0.5334 1.4732,0 2.666998,0.46567 3.581398,1.397 0.9144,0.93133 1.3716,2.30293 1.3716,4.1148 v 7.3914 H 47.79857 v -7.0358 c 0,-1.0668 -0.254,-1.905 -0.762,-2.5146 -0.508,-0.6096 -1.253067,-0.9144 -2.2352,-0.9144 -0.982133,0 -1.761067,0.3302 -2.3368,0.9906 -0.5588,0.64347 -0.8382,1.524 -0.8382,2.6416 v 6.8326 z m 19.329398,0 c -1.28693,0 -2.26907,-0.31327 -2.9464,-0.9398 -0.67733,-0.62653 -1.016,-1.6256 -1.016,-2.9972 v -6.2484 h -1.8034 v -2.413 h 1.8034 v -3.048 h 2.8956 v 3.048 h 3.0734 v 2.413 h -3.0734 v 6.2738 c 0,0.57573 0.13547,0.97367 0.4064,1.1938 0.27093,0.2032 0.67733,0.3048 1.2192,0.3048 h 1.4478 v 2.413 z m 9.09322,0.3048 c -1.04987,0 -1.9558,-0.22013 -2.7178,-0.6604 -0.74507,-0.44027 -1.3208,-1.0668 -1.7272,-1.8796 -0.4064,-0.82973 -0.6096,-1.8034 -0.6096,-2.921 v -7.4422 h 2.8702 v 7.0358 c 0,1.04987 0.24553,1.88807 0.7366,2.5146 0.508,0.6096 1.25307,0.9144 2.2352,0.9144 0.99907,0 1.778,-0.32173 2.3368,-0.9652 0.5588,-0.64347 0.8382,-1.53247 0.8382,-2.667 v -6.8326 h 2.8702 v 12.5984 h -2.794 l -0.0508,-1.7272 c -0.42333,0.64347 -0.9906,1.143 -1.7018,1.4986 -0.7112,0.3556 -1.4732,0.5334 -2.286,0.5334 z m 9.52501,-0.3048 v -12.5984 h 2.794 l 0.0508,2.0574 c 0.42333,-0.74507 0.9906,-1.3208 1.7018,-1.7272 0.72813,-0.42333 1.56633,-0.635 2.5146,-0.635 v 3.0226 h -0.7874 c -1.15147,0 -2.0066,0.28787 -2.5654,0.8636 -0.5588,0.57573 -0.8382,1.4732 -0.8382,2.6924 v 6.3246 z m 14.42721,0.3048 c -1.27,0 -2.37913,-0.2794 -3.3274,-0.8382 -0.94827,-0.57573 -1.69333,-1.35467 -2.2352,-2.3368 -0.52493,-0.99907 -0.7874,-2.14207 -0.7874,-3.429 0,-1.33773 0.26247,-2.49767 0.7874,-3.4798 0.54187,-0.98213 1.28693,-1.74413 2.2352,-2.286 0.9652,-0.5588 2.0828,-0.8382 3.3528,-0.8382 1.23613,0 2.3114,0.27093 3.2258,0.8128 0.9144,0.52493 1.63407,1.25307 2.159,2.1844 0.52493,0.93133 0.7874,1.98967 0.7874,3.175 0,0.23707 -0.008,0.44873 -0.0254,0.635 0,0.18627 -0.0169,0.38947 -0.0508,0.6096 h -9.5758 c 0.0508,0.6604 0.22013,1.25307 0.508,1.778 0.28787,0.508 0.67733,0.90593 1.1684,1.1938 0.508,0.28787 1.08373,0.4318 1.7272,0.4318 0.69427,0 1.27847,-0.1524 1.7526,-0.4572 0.49107,-0.3048 0.87207,-0.74507 1.143,-1.3208 h 3.0226 c -0.23707,0.762 -0.61807,1.45627 -1.143,2.0828 -0.508,0.62653 -1.15993,1.13453 -1.9558,1.524 -0.77893,0.37253 -1.7018,0.5588 -2.7686,0.5588 z m -3.429,-7.7978 h 6.6802 c -0.0169,-0.93133 -0.34713,-1.66793 -0.9906,-2.2098 -0.64347,-0.54187 -1.41393,-0.8128 -2.3114,-0.8128 -0.8128,0 -1.5494,0.24553 -2.2098,0.7366 -0.64347,0.49107 -1.03293,1.25307 -1.1684,2.286 z"
       id="text1"
       aria-label="Venture" />
    <path
       style="font-weight:600;font-size:25.4px;font-family:'Rethink Sans';-inkscape-font-specification:'Rethink Sans Semi-Bold';fill-opacity:1;stroke-width:5.29167;stroke-linecap:square;stroke:none;fill:#1b5e20"
       d="M 15.057926,35.195933 8.5047257,22.707603 h 3.0734003 l 5.2324,9.51653 5.2578,-14.8082 h 3.048 l -6.5786,17.78 z"
       id="path8"
       aria-label="Venture" />
  </g>
</svg>
